<svg width="39" height="41" viewBox="0 0 39 41" fill="none" xmlns="http://www.w3.org/2000/svg">
<mask id="mask0_29_49" style="mask-type:luminance" maskUnits="userSpaceOnUse" x="0" y="0" width="39" height="40">
<path d="M0 0H39V39.8396H0V0Z" fill="white"/>
</mask>
<g mask="url(#mask0_29_49)">
<mask id="mask1_29_49" style="mask-type:luminance" maskUnits="userSpaceOnUse" x="-1" y="-1" width="42" height="42">
<path d="M-0.923218 1.95232L38.0232 -0.204681L40.1934 38.5049L1.24698 40.6619L-0.923218 1.95232Z" fill="white"/>
</mask>
<g mask="url(#mask1_29_49)">
<mask id="mask2_29_49" style="mask-type:luminance" maskUnits="userSpaceOnUse" x="-2" y="-1" width="43" height="42">
<path d="M37.9336 -0.199738L-1.01282 1.95726L1.15808 40.6668L40.1038 38.5098L37.9336 -0.199738Z" fill="white"/>
</mask>
<g mask="url(#mask2_29_49)">
<path d="M1.17571 20.4358L17.7156 2.05539C18.3877 1.31934 19.3371 0.830036 20.4077 0.771151L34.0389 0.0161672C36.1908 -0.103705 38.0309 1.53244 38.1508 3.67121L38.9104 17.2196C38.9704 18.2935 38.5867 19.2854 37.9152 20.0215L21.3655 38.4117C20.7039 39.147 19.7546 39.6364 18.6832 39.6959C17.6126 39.7555 16.6047 39.3742 15.8649 38.7166L1.47405 25.9233C0.733485 25.2552 0.240484 24.3123 0.181239 23.2475C0.120584 22.1736 0.504969 21.1817 1.17571 20.4358ZM31.6607 9.85479C33.2772 9.76577 34.5087 8.3967 34.4191 6.78999C34.3288 5.18329 32.9514 3.95933 31.3348 4.04836C29.719 4.13808 28.4868 5.50715 28.5771 7.11386C28.6667 8.71986 30.0441 9.94452 31.6607 9.85479Z" fill="white"/>
</g>
</g>
</g>
<path fill-rule="evenodd" clip-rule="evenodd" d="M4.43287 27.3736C4.7834 27.9029 8.48973 29.457 9.57518 29.1345C9.98496 28.7329 9.94687 26.8927 10.1902 26.4216C10.7841 28.2527 9.50959 38.2259 9.47221 39.7863C11.0542 40.8708 22.8531 40.7544 25.6277 40.1088C26.0537 39.5164 24.6022 30.7384 24.7482 26.7231C25.0289 27.1255 25.189 28.1812 25.2609 28.6326C26.4049 28.9551 30.5648 28.0298 30.8723 27.5271C30.8829 26.5219 28.0285 18.7849 27.3112 18.3832C26.5044 17.7018 21.6223 16.0538 20.9276 15.303C20.7675 15.2147 20.6406 14.9931 20.5517 14.8656C19.7505 15.228 15.8008 15.3696 15.0659 14.8053C14.8882 15.0142 14.9072 15.1474 14.6399 15.2672C14.1272 15.2672 9.60269 17.3724 8.09618 18.5627C7.00932 19.8266 4.24385 26.7336 4.43287 27.3736Z" fill="#111D13"/>
</svg>
