<svg width="16" height="21" viewBox="0 0 16 21" fill="none" xmlns="http://www.w3.org/2000/svg">
<path d="M2.49999 20.1667C1.99582 20.1667 1.56438 19.9873 1.20566 19.6286C0.846323 19.2693 0.666656 18.8375 0.666656 18.3333V9.16667C0.666656 8.6625 0.846323 8.23075 1.20566 7.87142C1.56438 7.5127 1.99582 7.33333 2.49999 7.33333H3.41666V5.5C3.41666 4.23195 3.86368 3.15089 4.75774 2.25683C5.65118 1.36339 6.73193 0.916668 7.99999 0.916668C9.26805 0.916668 10.3491 1.36339 11.2432 2.25683C12.1366 3.15089 12.5833 4.23195 12.5833 5.5V7.33333H13.5C14.0042 7.33333 14.4359 7.5127 14.7952 7.87142C15.154 8.23075 15.3333 8.6625 15.3333 9.16667V18.3333C15.3333 18.8375 15.154 19.2693 14.7952 19.6286C14.4359 19.9873 14.0042 20.1667 13.5 20.1667H2.49999ZM7.99999 15.5833C8.50416 15.5833 8.93591 15.404 9.29524 15.0453C9.65396 14.6859 9.83332 14.2542 9.83332 13.75C9.83332 13.2458 9.65396 12.8141 9.29524 12.4548C8.93591 12.096 8.50416 11.9167 7.99999 11.9167C7.49582 11.9167 7.06438 12.096 6.70566 12.4548C6.34632 12.8141 6.16666 13.2458 6.16666 13.75C6.16666 14.2542 6.34632 14.6859 6.70566 15.0453C7.06438 15.404 7.49582 15.5833 7.99999 15.5833ZM5.24999 7.33333H10.75V5.5C10.75 4.73611 10.4826 4.08681 9.94791 3.55208C9.41318 3.01736 8.76388 2.75 7.99999 2.75C7.2361 2.75 6.5868 3.01736 6.05207 3.55208C5.51735 4.08681 5.24999 4.73611 5.24999 5.5V7.33333Z" fill="black"/>
</svg>
