<svg width="19" height="19" viewBox="0 0 19 19" fill="none" xmlns="http://www.w3.org/2000/svg">
<path d="M9.83332 15.5C9.83332 13.5 10.8417 11.7 12.3083 10.8C11.1167 10.3 9.64999 10 7.99999 10C3.96666 10 0.666656 11.8 0.666656 14V16H9.83332V15.5ZM14.875 12C13.1333 12 11.6667 13.6 11.6667 15.5C11.6667 17.4 13.1333 19 14.875 19C16.6167 19 18.0833 17.4 18.0833 15.5C18.0833 13.6 16.6167 12 14.875 12ZM11.6667 4C11.6667 6.2 10.0167 8 7.99999 8C5.98332 8 4.33332 6.2 4.33332 4C4.33332 1.8 5.98332 0 7.99999 0C10.0167 0 11.6667 1.8 11.6667 4Z" fill="black"/>
</svg>
